<mxfile host="app.diagrams.net" agent="Mozilla/5.0 (X11; Linux x86_64) AppleWebKit/537.36 (KHTML, like Gecko) Chrome/131.0.0.0 Safari/537.36" version="25.0.3">
  <diagram id="C5RBs43oDa-KdzZeNtuy" name="Page-1">
    <mxGraphModel dx="1350" dy="1878" grid="1" gridSize="10" guides="1" tooltips="1" connect="1" arrows="1" fold="1" page="1" pageScale="1" pageWidth="827" pageHeight="1169" math="0" shadow="0">
      <root>
        <mxCell id="WIyWlLk6GJQsqaUBKTNV-0" />
        <mxCell id="WIyWlLk6GJQsqaUBKTNV-1" parent="WIyWlLk6GJQsqaUBKTNV-0" />
        <mxCell id="RzsX7kAzvrtWyK_FrVrv-12" style="edgeStyle=orthogonalEdgeStyle;rounded=0;orthogonalLoop=1;jettySize=auto;html=1;entryX=0;entryY=0.5;entryDx=0;entryDy=0;" edge="1" parent="WIyWlLk6GJQsqaUBKTNV-1" source="WIyWlLk6GJQsqaUBKTNV-3" target="RzsX7kAzvrtWyK_FrVrv-2">
          <mxGeometry relative="1" as="geometry">
            <Array as="points">
              <mxPoint x="80" y="450" />
            </Array>
          </mxGeometry>
        </mxCell>
        <mxCell id="RzsX7kAzvrtWyK_FrVrv-14" style="edgeStyle=orthogonalEdgeStyle;rounded=0;orthogonalLoop=1;jettySize=auto;html=1;exitX=1;exitY=0.5;exitDx=0;exitDy=0;entryX=0;entryY=0.5;entryDx=0;entryDy=0;" edge="1" parent="WIyWlLk6GJQsqaUBKTNV-1" source="WIyWlLk6GJQsqaUBKTNV-3" target="RzsX7kAzvrtWyK_FrVrv-1">
          <mxGeometry relative="1" as="geometry" />
        </mxCell>
        <mxCell id="RzsX7kAzvrtWyK_FrVrv-18" style="edgeStyle=orthogonalEdgeStyle;rounded=0;orthogonalLoop=1;jettySize=auto;html=1;exitX=0.5;exitY=0;exitDx=0;exitDy=0;entryX=0;entryY=0.5;entryDx=0;entryDy=0;" edge="1" parent="WIyWlLk6GJQsqaUBKTNV-1" source="WIyWlLk6GJQsqaUBKTNV-3" target="RzsX7kAzvrtWyK_FrVrv-0">
          <mxGeometry relative="1" as="geometry" />
        </mxCell>
        <mxCell id="WIyWlLk6GJQsqaUBKTNV-3" value="Dashboard kebunkita.local" style="rounded=1;whiteSpace=wrap;html=1;fontSize=12;glass=0;strokeWidth=1;shadow=0;fillStyle=solid;fontStyle=1" parent="WIyWlLk6GJQsqaUBKTNV-1" vertex="1">
          <mxGeometry x="10" y="230" width="120" height="60" as="geometry" />
        </mxCell>
        <mxCell id="RzsX7kAzvrtWyK_FrVrv-1" value="Ubah Data Tampilan" style="rounded=1;whiteSpace=wrap;html=1;" vertex="1" parent="WIyWlLk6GJQsqaUBKTNV-1">
          <mxGeometry x="230" y="240" width="110" height="40" as="geometry" />
        </mxCell>
        <mxCell id="RzsX7kAzvrtWyK_FrVrv-2" value="Unduh Data" style="rounded=1;whiteSpace=wrap;html=1;" vertex="1" parent="WIyWlLk6GJQsqaUBKTNV-1">
          <mxGeometry x="240" y="430" width="110" height="40" as="geometry" />
        </mxCell>
        <mxCell id="RzsX7kAzvrtWyK_FrVrv-19" style="edgeStyle=orthogonalEdgeStyle;rounded=0;orthogonalLoop=1;jettySize=auto;html=1;exitX=1;exitY=0.5;exitDx=0;exitDy=0;entryX=0;entryY=0.75;entryDx=0;entryDy=0;" edge="1" parent="WIyWlLk6GJQsqaUBKTNV-1" source="RzsX7kAzvrtWyK_FrVrv-0" target="RzsX7kAzvrtWyK_FrVrv-8">
          <mxGeometry relative="1" as="geometry" />
        </mxCell>
        <mxCell id="RzsX7kAzvrtWyK_FrVrv-20" style="edgeStyle=orthogonalEdgeStyle;rounded=0;orthogonalLoop=1;jettySize=auto;html=1;" edge="1" parent="WIyWlLk6GJQsqaUBKTNV-1" source="RzsX7kAzvrtWyK_FrVrv-0" target="RzsX7kAzvrtWyK_FrVrv-10">
          <mxGeometry relative="1" as="geometry" />
        </mxCell>
        <mxCell id="RzsX7kAzvrtWyK_FrVrv-21" style="edgeStyle=orthogonalEdgeStyle;rounded=0;orthogonalLoop=1;jettySize=auto;html=1;entryX=0;entryY=0.5;entryDx=0;entryDy=0;" edge="1" parent="WIyWlLk6GJQsqaUBKTNV-1" source="RzsX7kAzvrtWyK_FrVrv-0" target="RzsX7kAzvrtWyK_FrVrv-11">
          <mxGeometry relative="1" as="geometry" />
        </mxCell>
        <mxCell id="RzsX7kAzvrtWyK_FrVrv-0" value="Home" style="rounded=1;whiteSpace=wrap;html=1;" vertex="1" parent="WIyWlLk6GJQsqaUBKTNV-1">
          <mxGeometry x="180" y="20" width="90" height="40" as="geometry" />
        </mxCell>
        <mxCell id="RzsX7kAzvrtWyK_FrVrv-44" style="edgeStyle=orthogonalEdgeStyle;rounded=0;orthogonalLoop=1;jettySize=auto;html=1;exitX=1;exitY=0.5;exitDx=0;exitDy=0;entryX=0;entryY=0.5;entryDx=0;entryDy=0;" edge="1" parent="WIyWlLk6GJQsqaUBKTNV-1" source="RzsX7kAzvrtWyK_FrVrv-8" target="RzsX7kAzvrtWyK_FrVrv-39">
          <mxGeometry relative="1" as="geometry" />
        </mxCell>
        <mxCell id="RzsX7kAzvrtWyK_FrVrv-47" style="edgeStyle=orthogonalEdgeStyle;rounded=0;orthogonalLoop=1;jettySize=auto;html=1;entryX=0;entryY=0.5;entryDx=0;entryDy=0;" edge="1" parent="WIyWlLk6GJQsqaUBKTNV-1" source="RzsX7kAzvrtWyK_FrVrv-8" target="RzsX7kAzvrtWyK_FrVrv-41">
          <mxGeometry relative="1" as="geometry" />
        </mxCell>
        <mxCell id="RzsX7kAzvrtWyK_FrVrv-48" style="edgeStyle=orthogonalEdgeStyle;rounded=0;orthogonalLoop=1;jettySize=auto;html=1;entryX=0;entryY=0.5;entryDx=0;entryDy=0;" edge="1" parent="WIyWlLk6GJQsqaUBKTNV-1" source="RzsX7kAzvrtWyK_FrVrv-8" target="RzsX7kAzvrtWyK_FrVrv-42">
          <mxGeometry relative="1" as="geometry" />
        </mxCell>
        <mxCell id="RzsX7kAzvrtWyK_FrVrv-49" style="edgeStyle=orthogonalEdgeStyle;rounded=0;orthogonalLoop=1;jettySize=auto;html=1;entryX=0;entryY=0.5;entryDx=0;entryDy=0;" edge="1" parent="WIyWlLk6GJQsqaUBKTNV-1" source="RzsX7kAzvrtWyK_FrVrv-8" target="RzsX7kAzvrtWyK_FrVrv-43">
          <mxGeometry relative="1" as="geometry" />
        </mxCell>
        <mxCell id="RzsX7kAzvrtWyK_FrVrv-53" style="edgeStyle=orthogonalEdgeStyle;rounded=0;orthogonalLoop=1;jettySize=auto;html=1;entryX=0;entryY=0.5;entryDx=0;entryDy=0;" edge="1" parent="WIyWlLk6GJQsqaUBKTNV-1" source="RzsX7kAzvrtWyK_FrVrv-8" target="RzsX7kAzvrtWyK_FrVrv-38">
          <mxGeometry relative="1" as="geometry" />
        </mxCell>
        <mxCell id="RzsX7kAzvrtWyK_FrVrv-54" style="edgeStyle=orthogonalEdgeStyle;rounded=0;orthogonalLoop=1;jettySize=auto;html=1;entryX=0;entryY=0.5;entryDx=0;entryDy=0;" edge="1" parent="WIyWlLk6GJQsqaUBKTNV-1" source="RzsX7kAzvrtWyK_FrVrv-8" target="RzsX7kAzvrtWyK_FrVrv-37">
          <mxGeometry relative="1" as="geometry" />
        </mxCell>
        <mxCell id="RzsX7kAzvrtWyK_FrVrv-8" value="Perikanan" style="rounded=1;whiteSpace=wrap;html=1;" vertex="1" parent="WIyWlLk6GJQsqaUBKTNV-1">
          <mxGeometry x="390" y="-230" width="110" height="40" as="geometry" />
        </mxCell>
        <mxCell id="RzsX7kAzvrtWyK_FrVrv-10" value="Perdagangan" style="rounded=1;whiteSpace=wrap;html=1;" vertex="1" parent="WIyWlLk6GJQsqaUBKTNV-1">
          <mxGeometry x="390" y="20" width="110" height="40" as="geometry" />
        </mxCell>
        <mxCell id="RzsX7kAzvrtWyK_FrVrv-11" value="Perkebunan" style="rounded=1;whiteSpace=wrap;html=1;" vertex="1" parent="WIyWlLk6GJQsqaUBKTNV-1">
          <mxGeometry x="390" y="150" width="110" height="40" as="geometry" />
        </mxCell>
        <mxCell id="RzsX7kAzvrtWyK_FrVrv-37" value="Halaman Tambah" style="rounded=0;whiteSpace=wrap;html=1;fontSize=11;" vertex="1" parent="WIyWlLk6GJQsqaUBKTNV-1">
          <mxGeometry x="560" y="-262" width="80" height="30" as="geometry" />
        </mxCell>
        <mxCell id="RzsX7kAzvrtWyK_FrVrv-38" value="Aksi Tambah" style="rounded=0;whiteSpace=wrap;html=1;" vertex="1" parent="WIyWlLk6GJQsqaUBKTNV-1">
          <mxGeometry x="560" y="-225" width="80" height="30" as="geometry" />
        </mxCell>
        <mxCell id="RzsX7kAzvrtWyK_FrVrv-39" value="Halaman List" style="rounded=0;whiteSpace=wrap;html=1;fontSize=11;" vertex="1" parent="WIyWlLk6GJQsqaUBKTNV-1">
          <mxGeometry x="560" y="-300" width="80" height="30" as="geometry" />
        </mxCell>
        <mxCell id="RzsX7kAzvrtWyK_FrVrv-41" value="Halaman Edit" style="rounded=0;whiteSpace=wrap;html=1;" vertex="1" parent="WIyWlLk6GJQsqaUBKTNV-1">
          <mxGeometry x="560" y="-190" width="80" height="30" as="geometry" />
        </mxCell>
        <mxCell id="RzsX7kAzvrtWyK_FrVrv-42" value="Aksi Ubah" style="rounded=0;whiteSpace=wrap;html=1;" vertex="1" parent="WIyWlLk6GJQsqaUBKTNV-1">
          <mxGeometry x="560" y="-150" width="80" height="30" as="geometry" />
        </mxCell>
        <mxCell id="RzsX7kAzvrtWyK_FrVrv-43" value="Aksi Hapus" style="rounded=0;whiteSpace=wrap;html=1;" vertex="1" parent="WIyWlLk6GJQsqaUBKTNV-1">
          <mxGeometry x="560" y="-113" width="80" height="30" as="geometry" />
        </mxCell>
      </root>
    </mxGraphModel>
  </diagram>
</mxfile>
